<svg width="27" height="30" viewBox="0 0 27 30" fill="none" xmlns="http://www.w3.org/2000/svg">
<g clip-path="url(#clip0_101_14153)">
<path d="M13.5 15C15.4702 15 17.3597 14.2098 18.7528 12.8033C20.1459 11.3968 20.9286 9.48912 20.9286 7.5C20.9286 5.51088 20.1459 3.60322 18.7528 2.1967C17.3597 0.790176 15.4702 0 13.5 0C11.5298 0 9.64033 0.790176 8.24721 2.1967C6.85408 3.60322 6.07143 5.51088 6.07143 7.5C6.07143 9.48912 6.85408 11.3968 8.24721 12.8033C9.64033 14.2098 11.5298 15 13.5 15ZM10.8478 17.8125C5.13125 17.8125 0.5 22.4883 0.5 28.2598C0.5 29.2207 1.27188 30 2.22366 30H24.7763C25.7281 30 26.5 29.2207 26.5 28.2598C26.5 22.4883 21.8687 17.8125 16.1522 17.8125H10.8478Z" fill="#003B56"/>
</g>
<defs>
<clipPath id="clip0_101_14153">
<rect width="26" height="30" fill="white" transform="translate(0.5)"/>
</clipPath>
</defs>
</svg>
